<mxfile host="65bd71144e">
    <diagram name="Page-1" id="kCTEm9XYIWeeO13ocLJ0">
        <mxGraphModel dx="737" dy="414" grid="1" gridSize="10" guides="1" tooltips="1" connect="1" arrows="1" fold="1" page="1" pageScale="1" pageWidth="827" pageHeight="1169" math="0" shadow="0">
            <root>
                <mxCell id="0"/>
                <mxCell id="1" parent="0"/>
                <mxCell id="QYKHE-ph5SWwtSzRXtWz-8" value="" style="rounded=0;whiteSpace=wrap;html=1;fillColor=none;movable=1;resizable=1;rotatable=1;deletable=1;editable=1;locked=0;connectable=1;" parent="1" vertex="1">
                    <mxGeometry x="50" y="70" width="740" height="250" as="geometry"/>
                </mxCell>
                <mxCell id="QYKHE-ph5SWwtSzRXtWz-1" value="webdb-1" style="rounded=0;whiteSpace=wrap;html=1;" parent="1" vertex="1">
                    <mxGeometry x="354" y="140" width="120" height="60" as="geometry"/>
                </mxCell>
                <mxCell id="QYKHE-ph5SWwtSzRXtWz-2" value="webdb-2" style="rounded=0;whiteSpace=wrap;html=1;" parent="1" vertex="1">
                    <mxGeometry x="490" y="140" width="120" height="60" as="geometry"/>
                </mxCell>
                <mxCell id="QYKHE-ph5SWwtSzRXtWz-3" value="webdb-3" style="rounded=0;whiteSpace=wrap;html=1;" parent="1" vertex="1">
                    <mxGeometry x="620" y="140" width="120" height="60" as="geometry"/>
                </mxCell>
                <mxCell id="QYKHE-ph5SWwtSzRXtWz-4" value="mongodb" style="rounded=0;whiteSpace=wrap;html=1;" parent="1" vertex="1">
                    <mxGeometry x="70" y="160" width="120" height="60" as="geometry"/>
                </mxCell>
                <mxCell id="QYKHE-ph5SWwtSzRXtWz-21" style="edgeStyle=orthogonalEdgeStyle;rounded=0;orthogonalLoop=1;jettySize=auto;html=1;exitX=0.5;exitY=1;exitDx=0;exitDy=0;shape=link;entryX=0;entryY=0.5;entryDx=0;entryDy=0;" parent="1" source="QYKHE-ph5SWwtSzRXtWz-5" target="2" edge="1">
                    <mxGeometry relative="1" as="geometry">
                        <mxPoint x="300" y="630" as="targetPoint"/>
                    </mxGeometry>
                </mxCell>
                <mxCell id="QYKHE-ph5SWwtSzRXtWz-5" value="mongodb-service" style="rounded=0;whiteSpace=wrap;html=1;" parent="1" vertex="1">
                    <mxGeometry x="70" y="280" width="120" height="60" as="geometry"/>
                </mxCell>
                <mxCell id="12" style="edgeStyle=none;shape=link;html=1;entryX=0.5;entryY=0;entryDx=0;entryDy=0;" edge="1" parent="1" source="QYKHE-ph5SWwtSzRXtWz-6" target="29">
                    <mxGeometry relative="1" as="geometry">
                        <mxPoint x="560" y="490" as="targetPoint"/>
                    </mxGeometry>
                </mxCell>
                <mxCell id="QYKHE-ph5SWwtSzRXtWz-6" value="webdb-service" style="rounded=0;whiteSpace=wrap;html=1;" parent="1" vertex="1">
                    <mxGeometry x="500" y="290" width="120" height="60" as="geometry"/>
                </mxCell>
                <mxCell id="19" style="edgeStyle=none;shape=link;html=1;exitX=0.5;exitY=1;exitDx=0;exitDy=0;entryX=0.5;entryY=0;entryDx=0;entryDy=0;" edge="1" parent="1" source="27" target="2">
                    <mxGeometry relative="1" as="geometry">
                        <mxPoint x="354" y="520" as="sourcePoint"/>
                        <Array as="points"/>
                    </mxGeometry>
                </mxCell>
                <mxCell id="QYKHE-ph5SWwtSzRXtWz-9" value="" style="endArrow=classic;html=1;rounded=0;" parent="1" edge="1">
                    <mxGeometry width="50" height="50" relative="1" as="geometry">
                        <mxPoint x="720" y="390" as="sourcePoint"/>
                        <mxPoint x="700" y="330" as="targetPoint"/>
                    </mxGeometry>
                </mxCell>
                <mxCell id="QYKHE-ph5SWwtSzRXtWz-10" value="&lt;div&gt;Cluster&lt;/div&gt;" style="rounded=0;whiteSpace=wrap;html=1;" parent="1" vertex="1">
                    <mxGeometry x="680" y="400" width="120" height="60" as="geometry"/>
                </mxCell>
                <mxCell id="QYKHE-ph5SWwtSzRXtWz-14" value="" style="endArrow=none;html=1;rounded=0;exitX=0;exitY=0;exitDx=0;exitDy=0;shape=link;" parent="1" source="QYKHE-ph5SWwtSzRXtWz-6" target="QYKHE-ph5SWwtSzRXtWz-1" edge="1">
                    <mxGeometry width="50" height="50" relative="1" as="geometry">
                        <mxPoint x="390" y="270" as="sourcePoint"/>
                        <mxPoint x="440" y="220" as="targetPoint"/>
                    </mxGeometry>
                </mxCell>
                <mxCell id="QYKHE-ph5SWwtSzRXtWz-15" value="" style="endArrow=none;html=1;rounded=0;exitX=0.5;exitY=0;exitDx=0;exitDy=0;shape=link;" parent="1" source="QYKHE-ph5SWwtSzRXtWz-6" target="QYKHE-ph5SWwtSzRXtWz-2" edge="1">
                    <mxGeometry width="50" height="50" relative="1" as="geometry">
                        <mxPoint x="390" y="270" as="sourcePoint"/>
                        <mxPoint x="440" y="220" as="targetPoint"/>
                    </mxGeometry>
                </mxCell>
                <mxCell id="QYKHE-ph5SWwtSzRXtWz-16" value="" style="endArrow=none;html=1;rounded=0;exitX=1;exitY=0;exitDx=0;exitDy=0;shape=link;" parent="1" source="QYKHE-ph5SWwtSzRXtWz-6" target="QYKHE-ph5SWwtSzRXtWz-3" edge="1">
                    <mxGeometry width="50" height="50" relative="1" as="geometry">
                        <mxPoint x="390" y="270" as="sourcePoint"/>
                        <mxPoint x="440" y="220" as="targetPoint"/>
                    </mxGeometry>
                </mxCell>
                <mxCell id="QYKHE-ph5SWwtSzRXtWz-20" value="" style="endArrow=none;html=1;rounded=0;entryX=0.5;entryY=1;entryDx=0;entryDy=0;shape=link;" parent="1" source="QYKHE-ph5SWwtSzRXtWz-5" target="QYKHE-ph5SWwtSzRXtWz-4" edge="1">
                    <mxGeometry width="50" height="50" relative="1" as="geometry">
                        <mxPoint x="390" y="270" as="sourcePoint"/>
                        <mxPoint x="440" y="220" as="targetPoint"/>
                    </mxGeometry>
                </mxCell>
                <mxCell id="QYKHE-ph5SWwtSzRXtWz-24" value="5000" style="rounded=1;whiteSpace=wrap;html=1;" parent="1" vertex="1">
                    <mxGeometry x="470" y="260" width="170" height="20" as="geometry"/>
                </mxCell>
                <mxCell id="QYKHE-ph5SWwtSzRXtWz-26" value="27017" style="rounded=1;whiteSpace=wrap;html=1;" parent="1" vertex="1">
                    <mxGeometry x="100" y="360" width="80" height="20" as="geometry"/>
                </mxCell>
                <mxCell id="QYKHE-ph5SWwtSzRXtWz-27" value="27017" style="rounded=1;whiteSpace=wrap;html=1;" parent="1" vertex="1">
                    <mxGeometry x="90" y="250" width="80" height="20" as="geometry"/>
                </mxCell>
                <mxCell id="2" value="PC" style="rounded=0;whiteSpace=wrap;html=1;" vertex="1" parent="1">
                    <mxGeometry x="399" y="680" width="120" height="60" as="geometry"/>
                </mxCell>
                <mxCell id="11" style="edgeStyle=none;shape=link;html=1;exitX=0.5;exitY=1;exitDx=0;exitDy=0;entryX=0.5;entryY=0;entryDx=0;entryDy=0;" edge="1" parent="1" source="5" target="27">
                    <mxGeometry relative="1" as="geometry">
                        <mxPoint x="354" y="460" as="targetPoint"/>
                    </mxGeometry>
                </mxCell>
                <mxCell id="22" value="" style="edgeStyle=none;shape=link;html=1;" edge="1" parent="1" source="5" target="20">
                    <mxGeometry relative="1" as="geometry"/>
                </mxCell>
                <mxCell id="5" value="webnodb-service" style="rounded=0;whiteSpace=wrap;html=1;" vertex="1" parent="1">
                    <mxGeometry x="294" y="290" width="120" height="60" as="geometry"/>
                </mxCell>
                <mxCell id="16" value="80" style="rounded=1;whiteSpace=wrap;html=1;" vertex="1" parent="1">
                    <mxGeometry x="290" y="430" width="80" height="20" as="geometry"/>
                </mxCell>
                <mxCell id="17" value="80" style="rounded=1;whiteSpace=wrap;html=1;" vertex="1" parent="1">
                    <mxGeometry x="550" y="430" width="80" height="20" as="geometry"/>
                </mxCell>
                <mxCell id="21" value="" style="edgeStyle=none;shape=link;html=1;startArrow=none;" edge="1" parent="1" source="23" target="5">
                    <mxGeometry relative="1" as="geometry"/>
                </mxCell>
                <mxCell id="20" value="webnodb" style="rounded=0;whiteSpace=wrap;html=1;" vertex="1" parent="1">
                    <mxGeometry x="210" y="150" width="120" height="60" as="geometry"/>
                </mxCell>
                <mxCell id="24" value="" style="edgeStyle=none;shape=link;html=1;endArrow=none;" edge="1" parent="1" source="20" target="23">
                    <mxGeometry relative="1" as="geometry">
                        <mxPoint x="288" y="210" as="sourcePoint"/>
                        <mxPoint x="336" y="290" as="targetPoint"/>
                    </mxGeometry>
                </mxCell>
                <mxCell id="25" value="" style="edgeStyle=none;shape=link;html=1;" edge="1" parent="1" source="23" target="5">
                    <mxGeometry relative="1" as="geometry"/>
                </mxCell>
                <mxCell id="23" value="5000" style="rounded=1;whiteSpace=wrap;html=1;" vertex="1" parent="1">
                    <mxGeometry x="280" y="250" width="80" height="20" as="geometry"/>
                </mxCell>
                <mxCell id="27" value="http://webdb.vmasseboeuf.net4255.luxbulb.org/&amp;nbsp;" style="rounded=1;whiteSpace=wrap;html=1;" vertex="1" parent="1">
                    <mxGeometry x="159.14" y="555" width="270.86" height="60" as="geometry"/>
                </mxCell>
                <mxCell id="31" value="" style="edgeStyle=none;shape=link;html=1;entryX=0.5;entryY=0;entryDx=0;entryDy=0;" edge="1" parent="1" source="29" target="2">
                    <mxGeometry relative="1" as="geometry">
                        <mxPoint x="585.4300000000001" y="660" as="targetPoint"/>
                    </mxGeometry>
                </mxCell>
                <mxCell id="29" value="http://webnodb.vmasseboeuf.net4255.luxbulb.org/" style="rounded=1;whiteSpace=wrap;html=1;" vertex="1" parent="1">
                    <mxGeometry x="480" y="555" width="270.86" height="60" as="geometry"/>
                </mxCell>
            </root>
        </mxGraphModel>
    </diagram>
</mxfile>